<svg width="200" height="200" viewBox="0 0 200 200" fill="none" xmlns="http://www.w3.org/2000/svg">
<path d="M187.797 56.8309L151.725 20.6899V165.518H200V86.1754C200 75.1587 195.607 64.5972 187.797 56.8309Z" fill="#FFB782"/>
<path d="M28.195 139.129L0.92522 68.3354C-1.81179 61.2289 1.7289 53.2461 8.83932 50.5077L137.553 0.928402C144.659 -1.80863 152.642 1.73209 155.379 8.84257L182.649 79.6359C185.386 86.7424 181.845 94.7252 174.735 97.4635L46.0252 147.043C38.9148 149.78 30.936 146.235 28.195 139.129Z" fill="#DE4C3C"/>
<path d="M165.207 34.3447L10.877 94.1662L21.1533 120.842L175.489 61.0486L165.207 34.3447Z" fill="#7A4930"/>
<path d="M0.00195312 89.6557V13.7934C0.00195312 6.17614 6.17804 0 13.7952 0H151.725C159.342 0 165.518 6.17614 165.518 13.7934V89.6557C165.518 97.2729 159.342 103.449 151.725 103.449H13.7952C6.17804 103.449 0.00195312 97.2729 0.00195312 89.6557Z" fill="#4398D1"/>
<path d="M151.725 0H137.07L33.6216 103.449H151.725C159.342 103.449 165.518 97.2728 165.518 89.6556V13.7934C165.518 6.17613 159.342 0 151.725 0Z" fill="#3E8CC7"/>
<path d="M13.7947 55.1723H27.588V62.069H13.7947V55.1723Z" fill="#5EB3D1"/>
<path d="M13.7947 75.8622H27.588V82.7589H13.7947V75.8622Z" fill="#5EB3D1"/>
<path d="M75.863 75.8622H89.6565V82.7589H75.863V75.8622Z" fill="#5EB3D1"/>
<path d="M34.4849 55.1723H48.2769V62.069H34.4849V55.1723Z" fill="#5EB3D1"/>
<path d="M55.1733 55.1723H68.9666V62.069H55.1733V55.1723Z" fill="#5EB3D1"/>
<path d="M75.863 55.1723H89.6565V62.069H75.863V55.1723Z" fill="#5EB3D1"/>
<path d="M141.38 13.7934H148.276V24.1385H141.38V13.7934Z" fill="#5EB3D1"/>
<path d="M127.586 13.7934H134.483V24.1385H127.586V13.7934Z" fill="#5EB3D1"/>
<path d="M113.793 13.7934H120.69V24.1385H113.793V13.7934Z" fill="#5EB3D1"/>
<path d="M100.001 13.7934H106.897V24.1385H100.001V13.7934Z" fill="#5EB3D1"/>
<path d="M137.931 165.518H200V200H137.931V165.518Z" fill="#88B337"/>
<path d="M127.811 62.2932C121.962 56.4655 112.497 56.4826 106.67 62.3315C101.035 67.9863 100.839 77.0724 106.225 82.9661L134.483 113.794C125.99 128.659 126.353 146.989 135.424 161.507L137.931 165.518H182.758V117.242L127.811 62.2932Z" fill="#FFB782"/>
<path d="M148.276 175.863H155.173V182.76H148.276V175.863Z" fill="#6B962A"/>
<path d="M13.7947 35.8626V19.311C13.7947 16.2626 16.2638 13.7934 19.3123 13.7934H35.8637C38.9121 13.7934 41.3799 16.2626 41.3799 19.311V35.8626C41.3799 38.911 38.9121 41.3802 35.8637 41.3802H19.3123C16.2638 41.3802 13.7947 38.911 13.7947 35.8626Z" fill="#FDB62F"/>
<path d="M13.7947 24.1384H24.1397V31.0351H13.7947V24.1384Z" fill="#FD7B2F"/>
<path d="M31.0364 24.1384H41.3799V31.0351H31.0364V24.1384Z" fill="#FD7B2F"/>
<path d="M179.31 117.242C178.397 117.242 177.518 116.879 176.873 116.231L163.079 102.438C161.756 101.07 161.794 98.8868 163.166 97.5619C164.505 96.2725 166.621 96.2725 167.956 97.5619L181.749 111.355C183.093 112.704 183.093 114.887 181.749 116.231C181.099 116.879 180.225 117.242 179.31 117.242Z" fill="#F2A46F"/>
</svg>
