<svg width="267" height="208" viewBox="0 0 267 208" fill="none" xmlns="http://www.w3.org/2000/svg">
<path d="M257.45 103.73C251.913 104.27 246.376 101.029 244.161 95.6259C241.946 90.2232 243.607 84.2805 247.483 80.4985L244.715 74.5558C239.178 75.0962 233.641 71.8547 231.426 66.4519C229.211 61.0492 230.872 55.1065 234.748 51.3245L231.98 45.3818C226.443 45.9222 220.906 42.6807 218.691 37.2779C216.476 31.8752 218.137 25.9325 222.013 22.1505L219.798 17.2882C212.6 20.5297 203.741 17.2882 200.972 9.7247L8.28342 90.7636C11.6056 97.7871 8.28342 106.431 0.531738 109.133L2.74673 113.995C8.28394 113.454 13.8206 116.696 16.0356 122.099C18.2506 127.502 16.5895 133.444 12.7134 137.226L15.4817 143.169C21.0189 142.628 26.5556 145.87 28.7706 151.273C30.9856 156.676 29.3245 162.618 25.4484 166.4L28.2167 172.343C33.754 171.802 39.2906 175.044 41.5056 180.447C43.7206 185.85 42.0595 191.792 38.1834 195.574L40.3984 200.437C47.5967 197.195 56.4556 200.437 59.2245 208L251.913 127.502C248.591 120.478 251.913 111.834 259.665 109.133L257.45 103.73Z" fill="#FF7058"/>
<path d="M224.228 111.834L66.976 177.205L35.9688 105.891L193.22 39.9791L224.228 111.834ZM70.8521 168.021L214.815 107.511L189.344 49.7037L45.3815 110.213L70.8521 168.021Z" fill="#FFD15C"/>
<path d="M87.0062 121.654L92.0332 136.113L86.7226 138.747L80.6783 132.302L83.3721 140.212L78.6356 142.043L72.9652 127.082L78.1256 124.797L84.839 130.911L82.1064 123.742L87.0062 121.654ZM100.527 116.741C101.212 119.315 101.939 121.86 102.707 124.378C103.472 126.889 104.255 129.413 105.055 131.95L100.868 133.932L100.4 132.249C100.325 132.464 100.217 132.667 100.076 132.859C99.942 133.048 99.7854 133.221 99.6061 133.379C99.4241 133.53 99.2279 133.666 99.0176 133.788C98.8044 133.903 98.5946 133.996 98.3883 134.068C97.9083 134.245 97.4222 134.328 96.9301 134.317C96.4351 134.298 95.9525 134.211 95.4822 134.054C95.0091 133.89 94.5525 133.667 94.1126 133.386C93.6698 133.097 93.262 132.775 92.8892 132.419C92.5205 132.054 92.1912 131.665 91.901 131.253C91.6179 130.838 91.3896 130.419 91.2162 129.994C90.9602 129.367 90.7062 128.715 90.4542 128.038C90.2064 127.352 89.9762 126.659 89.7635 125.959C89.5507 125.259 89.3584 124.559 89.1865 123.859C89.0215 123.157 88.8925 122.473 88.7995 121.807C89.6726 121.518 90.5478 121.224 91.4251 120.925C92.3025 120.626 93.1663 120.304 94.0167 119.96C94.1027 120.628 94.1902 121.3 94.2791 121.975C94.3721 122.641 94.4821 123.308 94.6089 123.976C94.7329 124.638 94.8828 125.294 95.0588 125.944C95.2347 126.593 95.4521 127.235 95.7109 127.869C95.7706 128.015 95.8629 128.221 95.9879 128.488C96.1128 128.754 96.2574 129.008 96.4216 129.251C96.5929 129.492 96.7794 129.69 96.9811 129.846C97.1871 129.992 97.4023 130.021 97.6269 129.935C97.8935 129.832 98.0866 129.628 98.2061 129.324C98.3227 129.012 98.3835 128.634 98.3885 128.189C98.3935 127.743 98.3497 127.248 98.2572 126.703C98.1717 126.155 98.0567 125.595 97.912 125.022C97.7715 124.439 97.6121 123.86 97.4337 123.284C97.2553 122.707 97.0771 122.171 96.899 121.676C96.7252 121.17 96.5621 120.721 96.4099 120.329C96.2646 119.933 96.1479 119.628 96.0598 119.412C96.0029 119.272 95.9439 119.138 95.8829 119.008C95.8218 118.879 95.7558 118.747 95.6849 118.613C96.1467 118.451 96.6036 118.286 97.0555 118.119C97.5074 117.953 97.9615 117.781 98.4176 117.605C98.7684 117.469 99.1193 117.334 99.4701 117.198C99.8251 117.053 100.177 116.9 100.527 116.741ZM122.671 117.011C123.078 118.007 123.451 119.011 123.792 120.025C124.133 121.038 124.464 122.059 124.787 123.088L119.479 125.43C119.146 124.156 118.795 122.888 118.426 121.627C118.062 120.357 117.631 119.112 117.133 117.894C117.102 117.817 117.044 117.686 116.96 117.501C116.874 117.308 116.77 117.094 116.649 116.859C116.536 116.62 116.409 116.379 116.269 116.135C116.133 115.881 115.992 115.657 115.848 115.463C115.708 115.259 115.571 115.102 115.437 114.993C115.303 114.883 115.183 114.849 115.078 114.89C114.832 114.985 114.678 115.153 114.614 115.396C114.548 115.631 114.532 115.891 114.567 116.176C114.609 116.458 114.679 116.738 114.775 117.015C114.869 117.285 114.951 117.503 115.019 117.671C115.138 117.963 115.265 118.253 115.398 118.54C115.532 118.827 115.661 119.124 115.786 119.43C116.227 120.51 116.638 121.597 117.02 122.691C117.409 123.783 117.785 124.883 118.149 125.993L113.237 128.109C112.903 126.835 112.55 125.572 112.177 124.321C111.809 123.061 111.376 121.821 110.878 120.602C110.847 120.525 110.786 120.387 110.697 120.188C110.607 119.989 110.501 119.768 110.377 119.525C110.261 119.28 110.13 119.028 109.984 118.77C109.838 118.512 109.691 118.283 109.544 118.082C109.401 117.871 109.261 117.707 109.124 117.591C108.987 117.474 108.863 117.438 108.75 117.481C108.575 117.549 108.456 117.676 108.394 117.861C108.328 118.039 108.301 118.251 108.312 118.497C108.33 118.74 108.372 119.002 108.438 119.283C108.508 119.554 108.584 119.82 108.665 120.078C108.754 120.335 108.839 120.572 108.92 120.791C109.005 121 109.066 121.158 109.101 121.265L111.984 128.981L106.679 131.032C106.311 129.811 105.941 128.587 105.57 127.36C105.205 126.13 104.825 124.91 104.429 123.7C104.036 122.481 103.627 121.268 103.199 120.063C102.772 118.857 102.316 117.662 101.833 116.478L106.758 114.332L107.232 115.552C107.306 115.298 107.402 115.035 107.519 114.764C107.633 114.486 107.767 114.228 107.922 113.991C108.082 113.744 108.264 113.524 108.47 113.332C108.683 113.136 108.922 112.987 109.189 112.884C109.533 112.751 109.853 112.66 110.149 112.61C110.443 112.553 110.724 112.545 110.993 112.586C111.268 112.625 111.536 112.723 111.795 112.881C112.052 113.031 112.312 113.249 112.575 113.535C112.7 113.204 112.832 112.891 112.971 112.595C113.117 112.297 113.287 112.026 113.48 111.782C113.67 111.531 113.895 111.307 114.156 111.109C114.416 110.912 114.725 110.744 115.083 110.605C115.764 110.342 116.397 110.251 116.982 110.331C117.564 110.404 118.102 110.596 118.594 110.906C119.093 111.213 119.544 111.611 119.947 112.1C120.357 112.587 120.73 113.112 121.066 113.676C121.401 114.239 121.701 114.813 121.963 115.397C122.233 115.978 122.469 116.516 122.671 117.011ZM134.831 110.737C135.079 111.343 135.284 111.965 135.447 112.603C134.279 113.144 133.137 113.73 132.022 114.363C130.905 114.989 129.787 115.614 128.669 116.24C129.057 116.671 129.504 116.961 130.012 117.112C130.528 117.259 131.055 117.229 131.596 117.02C131.876 116.911 132.16 116.741 132.448 116.509C132.742 116.274 133.022 116.017 133.29 115.736C133.554 115.448 133.8 115.156 134.028 114.858C134.256 114.56 134.448 114.296 134.606 114.066L136.038 119.004C135.849 119.319 135.624 119.612 135.361 119.883C135.105 120.151 134.823 120.397 134.516 120.62C134.21 120.844 133.889 121.044 133.555 121.222C133.222 121.399 132.886 121.553 132.55 121.683C131.855 121.952 131.181 122.103 130.529 122.138C129.877 122.172 129.248 122.113 128.641 121.96C128.038 121.798 127.468 121.555 126.929 121.231C126.391 120.907 125.895 120.518 125.441 120.064C124.988 119.611 124.578 119.104 124.211 118.544C123.845 117.984 123.535 117.394 123.282 116.775C123.017 116.127 122.812 115.456 122.667 114.762C122.522 114.068 122.446 113.376 122.44 112.685C122.441 111.991 122.52 111.319 122.678 110.669C122.839 110.01 123.087 109.394 123.422 108.821C123.757 108.248 124.189 107.734 124.718 107.28C125.254 106.822 125.898 106.449 126.649 106.158C127.273 105.917 127.877 105.784 128.461 105.76C129.048 105.727 129.604 105.786 130.129 105.938C130.659 106.08 131.156 106.303 131.621 106.607C132.094 106.908 132.527 107.273 132.921 107.701C133.32 108.12 133.678 108.59 133.997 109.112C134.32 109.624 134.598 110.166 134.831 110.737ZM130.399 111.821C130.32 111.626 130.217 111.436 130.093 111.25C129.965 111.057 129.819 110.897 129.652 110.767C129.493 110.635 129.314 110.547 129.117 110.502C128.917 110.451 128.702 110.469 128.47 110.559C128.189 110.668 127.972 110.84 127.817 111.078C127.666 111.305 127.56 111.564 127.5 111.853C127.436 112.136 127.41 112.429 127.419 112.731C127.429 113.034 127.455 113.306 127.497 113.548L130.493 112.051L130.399 111.821ZM147.196 104.069C147.418 104.613 147.571 105.126 147.655 105.61C147.743 106.084 147.76 106.545 147.708 106.993C147.655 107.44 147.531 107.883 147.336 108.322C147.141 108.76 146.874 109.21 146.535 109.672L150.849 113.133L146.488 115.883L143.049 112.06L141.761 112.606L143.346 117.025L138.82 118.775C138.207 117.173 137.593 115.58 136.978 113.995C136.371 112.408 135.764 110.812 135.157 109.208C134.844 108.401 134.534 107.602 134.227 106.809C133.919 106.017 133.623 105.212 133.338 104.395C133.756 104.024 134.179 103.687 134.607 103.384C135.036 103.081 135.476 102.806 135.928 102.559C136.384 102.302 136.853 102.068 137.336 101.857C137.822 101.637 138.325 101.426 138.845 101.226C139.645 100.916 140.462 100.729 141.297 100.665C142.136 100.59 142.933 100.661 143.687 100.878C144.442 101.094 145.125 101.463 145.736 101.985C146.354 102.504 146.841 103.199 147.196 104.069ZM142.617 106.227C142.498 105.934 142.346 105.682 142.163 105.471C141.986 105.257 141.781 105.094 141.549 104.983C141.32 104.861 141.067 104.798 140.789 104.793C140.515 104.778 140.22 104.831 139.904 104.953C139.763 105.007 139.631 105.071 139.506 105.143C139.378 105.209 139.259 105.283 139.146 105.367L140.565 109.318L140.818 109.221C141.119 109.104 141.409 108.948 141.686 108.752C141.971 108.553 142.203 108.326 142.383 108.071C142.571 107.813 142.69 107.529 142.742 107.219C142.801 106.906 142.76 106.575 142.617 106.227ZM161.787 100.823C162.046 101.457 162.223 102.099 162.317 102.748C162.409 103.39 162.419 104.023 162.349 104.647C162.286 105.268 162.143 105.872 161.919 106.458C161.699 107.035 161.403 107.573 161.03 108.072C160.664 108.568 160.225 109.016 159.714 109.415C159.2 109.808 158.616 110.13 157.964 110.382C157.332 110.626 156.696 110.78 156.055 110.842C155.422 110.901 154.797 110.885 154.182 110.792C153.565 110.692 152.97 110.518 152.398 110.272C151.83 110.016 151.302 109.696 150.812 109.313C150.327 108.92 149.887 108.469 149.492 107.96C149.104 107.449 148.784 106.883 148.531 106.263C148.283 105.657 148.115 105.037 148.027 104.402C147.935 103.76 147.921 103.128 147.984 102.507C148.054 101.883 148.198 101.279 148.414 100.695C148.631 100.112 148.917 99.5693 149.274 99.0687C149.637 98.5654 150.067 98.1168 150.564 97.723C151.062 97.3291 151.626 97.0101 152.258 96.766C153.275 96.3726 154.265 96.1712 155.228 96.1618C156.198 96.1497 157.097 96.3222 157.926 96.6794C158.758 97.0269 159.505 97.5526 160.166 98.2567C160.832 98.951 161.372 99.8066 161.787 100.823ZM157.225 102.902C157.103 102.602 156.939 102.331 156.734 102.088C156.533 101.835 156.305 101.633 156.048 101.482C155.789 101.324 155.505 101.228 155.199 101.193C154.896 101.149 154.584 101.189 154.261 101.314C153.931 101.441 153.661 101.615 153.449 101.833C153.238 102.052 153.08 102.303 152.976 102.585C152.876 102.857 152.834 103.152 152.85 103.468C152.862 103.778 152.931 104.086 153.056 104.393C153.176 104.685 153.337 104.961 153.541 105.221C153.745 105.481 153.979 105.697 154.244 105.869C154.509 106.04 154.794 106.152 155.1 106.203C155.412 106.252 155.733 106.212 156.063 106.085C156.393 105.957 156.662 105.781 156.87 105.555C157.083 105.32 157.236 105.059 157.331 104.772C157.422 104.479 157.459 104.17 157.44 103.847C157.422 103.523 157.35 103.208 157.225 102.902ZM178.659 97.7605L177.741 98.1395L179.395 102.726L174.808 104.983L173.089 100.059L167.52 102.357L165.332 92.5822L169.311 91.044L170.764 97.8854L172.136 97.3065L169.302 89.2328L173.871 87.4668L176.72 95.3407L177.524 94.9815L178.659 97.7605ZM190.156 93.0255C190.525 93.9309 190.682 94.7817 190.625 95.5778C190.575 96.3713 190.359 97.0959 189.977 97.7517C189.595 98.4075 189.069 98.9898 188.399 99.4987C187.73 100.008 186.963 100.429 186.1 100.763C185.686 100.923 185.268 101.052 184.845 101.151C184.42 101.243 183.99 101.316 183.558 101.371C183.129 101.415 182.695 101.446 182.255 101.463C181.822 101.477 181.381 101.482 180.933 101.478L179.635 97.1655C179.944 97.2072 180.267 97.2316 180.603 97.2388C180.939 97.2459 181.275 97.233 181.611 97.1999C181.954 97.1641 182.289 97.1109 182.618 97.0403C182.954 96.967 183.269 96.8734 183.564 96.7594C183.739 96.6916 183.947 96.5949 184.189 96.4694C184.427 96.3369 184.645 96.1841 184.842 96.011C185.037 95.831 185.185 95.6366 185.287 95.428C185.393 95.2096 185.396 94.9786 185.296 94.7348C185.202 94.505 185.055 94.3322 184.853 94.2166C184.659 94.0983 184.435 94.0276 184.182 94.0045C183.933 93.9717 183.665 93.9742 183.38 94.0119C183.095 94.0496 182.812 94.1026 182.531 94.1708C182.257 94.2364 182 94.3118 181.758 94.397C181.524 94.4796 181.329 94.5507 181.175 94.6104C180.859 94.7325 180.542 94.8712 180.224 95.0266C179.912 95.1792 179.619 95.357 179.345 95.5599L176.319 86.9558L184.75 83.4299L186.765 87.7073L181.362 89.4575L182.016 91.3578C182.301 91.1592 182.594 90.9814 182.895 90.8245C183.194 90.6606 183.501 90.5176 183.817 90.3955C184.455 90.1487 185.091 90.0239 185.724 90.0213C186.36 90.0089 186.961 90.1156 187.524 90.3414C188.094 90.5644 188.606 90.9027 189.06 91.3565C189.517 91.8005 189.883 92.3569 190.156 93.0255Z" fill="#FCFFFC"/>
<path opacity="0.1" d="M243.607 95.6259C241.392 90.2231 243.054 84.2804 246.93 80.4985L244.161 74.5558C238.624 75.0962 233.087 71.8546 230.872 66.4519C228.657 61.0491 230.319 55.1065 234.195 51.3245L231.426 45.3818C225.889 45.9222 220.352 42.6807 218.137 37.2779C215.922 31.8751 217.584 25.9325 221.46 22.1505L219.245 17.2882C212.046 20.5297 203.187 17.2882 200.419 9.7247L19.3574 85.3608V88.0619L24.8946 89.6827C26.5557 90.2231 28.7707 91.8439 28.7707 94.545C28.7707 97.2461 27.1096 98.8669 24.8946 99.4073L19.3574 101.028V119.937H28.2169C31.5391 119.937 34.3074 122.638 34.3074 125.88V133.984H232.534L251.913 125.88C248.591 118.856 251.913 110.212 259.665 107.511L257.45 103.729C251.913 104.27 246.376 101.028 243.607 95.6259Z" fill="#231F20"/>
<path d="M266.31 107.511C260.772 105.89 256.897 101.028 256.897 95.0855C256.897 89.1428 260.773 84.2804 266.31 82.6597V75.6361C260.772 74.0154 256.897 69.153 256.897 63.2103C256.897 57.2676 260.773 52.4053 266.31 50.7845V44.3014C260.772 42.6806 256.897 37.8183 256.897 31.8756C256.897 25.9329 260.772 21.0701 266.31 19.4493V14.0466C258.558 14.0466 251.913 7.56346 251.913 0H42.6134C42.6134 7.56346 35.969 14.0466 28.2173 14.0466V18.9089C33.754 20.5297 37.6301 25.392 37.6301 31.3347C37.6301 37.2774 33.2006 42.1397 28.2173 44.3009V51.3245C33.7545 52.9452 37.6301 57.8076 37.6301 63.7503C37.6301 69.6929 33.754 74.5558 28.2168 76.1765V83.2001C33.754 84.8209 37.6296 89.6832 37.6296 95.6259C37.6301 101.569 33.754 106.431 28.2168 108.052V112.914C35.9685 112.914 42.6129 119.397 42.6129 126.961H251.913C251.913 119.397 258.557 112.914 266.309 112.914L266.31 107.511Z" fill="#FF7058"/>
<path d="M232.533 102.109H61.439V24.8516H232.533V102.109ZM68.6373 95.0854H225.335V31.8751H68.6373V95.0854Z" fill="#FFD15C"/>
<path d="M102.334 55.5497L101.521 70.8518L95.6082 71.3935L92.4485 63.2007L91.9519 71.5514H86.8738L87.2801 55.5497L92.9224 55.2789L96.8269 63.4039L97.0075 55.7303L102.334 55.5497ZM116.711 55.8431C116.372 58.4913 116.082 61.1281 115.842 63.7537C115.601 66.3718 115.371 69.0086 115.153 71.6643L110.527 72.0028L110.73 70.265C110.579 70.438 110.402 70.5885 110.199 70.7164C110.004 70.8443 109.793 70.9496 109.567 71.0323C109.342 71.1076 109.108 71.164 108.868 71.2016C108.627 71.2317 108.398 71.243 108.179 71.2355C107.668 71.2279 107.186 71.1301 106.735 70.9421C106.284 70.7465 105.87 70.4907 105.494 70.1747C105.117 69.8512 104.779 69.4788 104.478 69.0575C104.177 68.6287 103.921 68.1811 103.711 67.7146C103.507 67.2407 103.35 66.7592 103.237 66.2702C103.131 65.7812 103.079 65.3072 103.079 64.8483C103.079 64.1712 103.09 63.4716 103.113 62.7494C103.143 62.0196 103.192 61.2899 103.259 60.5601C103.327 59.8304 103.413 59.1082 103.519 58.3935C103.632 57.6788 103.771 56.9941 103.936 56.3396C104.854 56.3848 105.776 56.4261 106.701 56.4638C107.626 56.5014 108.548 56.5127 109.466 56.4976C109.293 57.1521 109.12 57.8104 108.947 58.4724C108.781 59.127 108.631 59.789 108.495 60.4586C108.36 61.1206 108.251 61.7864 108.168 62.456C108.085 63.1255 108.044 63.8026 108.044 64.4872C108.044 64.6452 108.051 64.8709 108.067 65.1643C108.082 65.4577 108.119 65.7473 108.179 66.0332C108.247 66.3191 108.345 66.5711 108.473 66.7893C108.608 66.9999 108.796 67.1053 109.037 67.1053C109.323 67.1053 109.579 66.9849 109.804 66.7441C110.03 66.4959 110.229 66.1649 110.402 65.7511C110.575 65.3373 110.722 64.8596 110.843 64.3179C110.97 63.7763 111.076 63.212 111.159 62.6252C111.249 62.0309 111.32 61.4328 111.373 60.831C111.426 60.2291 111.463 59.6649 111.486 59.1382C111.516 58.6041 111.535 58.1264 111.542 57.7051C111.557 57.2838 111.565 56.9565 111.565 56.7233C111.565 56.5729 111.561 56.4261 111.553 56.2832C111.546 56.1403 111.535 55.9936 111.52 55.8431C112.009 55.8582 112.494 55.8694 112.975 55.877C113.457 55.8845 113.942 55.8882 114.431 55.8882C114.807 55.8882 115.183 55.8882 115.56 55.8882C115.943 55.8807 116.327 55.8657 116.711 55.8431ZM115.83 52.7285C114.935 53.2175 114.062 53.7141 113.212 54.2181C112.362 54.7146 111.512 55.2563 110.662 55.8431L109.218 54.2632C109.368 54.0827 109.549 53.8833 109.759 53.6652C109.97 53.4395 110.192 53.21 110.425 52.9768C110.666 52.7436 110.914 52.5103 111.17 52.2771C111.426 52.0364 111.674 51.8069 111.915 51.5888C112.486 51.0697 113.084 50.5468 113.709 50.0202L115.83 52.7285ZM137.113 64.081C137.113 65.1568 137.08 66.2288 137.012 67.2971C136.944 68.3654 136.865 69.4374 136.775 70.5132L130.975 70.7841C131.148 69.4751 131.302 68.166 131.437 66.857C131.58 65.5404 131.652 64.2239 131.652 62.9073C131.652 62.8246 131.648 62.6816 131.64 62.4785C131.633 62.2679 131.618 62.0309 131.595 61.7676C131.58 61.5043 131.554 61.2334 131.516 60.9551C131.486 60.6692 131.441 60.4097 131.381 60.1764C131.328 59.9357 131.26 59.7401 131.178 59.5896C131.095 59.4392 130.997 59.3639 130.884 59.3639C130.621 59.3639 130.414 59.4655 130.264 59.6686C130.113 59.8642 130 60.1012 129.925 60.3796C129.857 60.6579 129.816 60.9438 129.801 61.2372C129.786 61.5231 129.778 61.7563 129.778 61.9369C129.778 62.2528 129.786 62.5688 129.801 62.8848C129.816 63.2007 129.823 63.5242 129.823 63.8553C129.823 65.0213 129.793 66.1837 129.733 67.3422C129.681 68.5008 129.613 69.6631 129.53 70.8292L124.181 71.0323C124.354 69.7233 124.505 68.418 124.632 67.1165C124.768 65.8075 124.836 64.4947 124.836 63.1782C124.836 63.0954 124.832 62.945 124.824 62.7268C124.817 62.5086 124.802 62.2641 124.779 61.9933C124.764 61.7224 124.738 61.4403 124.7 61.1469C124.663 60.8535 124.614 60.5864 124.553 60.3457C124.501 60.0974 124.433 59.8943 124.35 59.7363C124.268 59.5783 124.166 59.4994 124.046 59.4994C123.858 59.4994 123.7 59.5746 123.572 59.725C123.444 59.868 123.339 60.0561 123.256 60.2893C123.181 60.5225 123.12 60.7821 123.075 61.0679C123.038 61.3463 123.007 61.6209 122.985 61.8917C122.97 62.1625 122.959 62.4146 122.951 62.6478C122.951 62.8735 122.947 63.0428 122.94 63.1556L122.692 71.3935H117.004C117.124 70.122 117.245 68.8469 117.365 67.5679C117.493 66.289 117.602 65.0138 117.692 63.7424C117.79 62.4635 117.869 61.1845 117.929 59.9056C117.99 58.6267 118.02 57.3477 118.02 56.0688L123.391 55.8431L123.369 57.1521C123.534 56.9415 123.722 56.7308 123.933 56.5202C124.143 56.302 124.365 56.1102 124.599 55.9447C124.839 55.7716 125.091 55.6325 125.355 55.5271C125.626 55.4218 125.904 55.3691 126.19 55.3691C126.558 55.3691 126.889 55.3992 127.183 55.4594C127.476 55.5121 127.74 55.6061 127.973 55.7415C128.214 55.877 128.424 56.065 128.605 56.3058C128.785 56.539 128.943 56.8362 129.079 57.1973C129.319 56.934 129.56 56.6895 129.801 56.4638C130.049 56.2381 130.309 56.0462 130.58 55.8882C130.85 55.7227 131.144 55.5948 131.46 55.5046C131.776 55.4143 132.126 55.3691 132.509 55.3691C133.239 55.3691 133.86 55.5121 134.371 55.798C134.883 56.0763 135.308 56.4487 135.646 56.9152C135.992 57.3816 136.26 57.9157 136.448 58.5176C136.643 59.1194 136.79 59.7439 136.888 60.3908C136.985 61.0378 137.046 61.6811 137.068 62.3205C137.098 62.96 137.113 63.5468 137.113 64.081ZM150.745 62.6139C150.745 63.2685 150.7 63.923 150.61 64.5775C149.323 64.6602 148.045 64.7957 146.773 64.9837C145.502 65.1643 144.23 65.3448 142.959 65.5254C143.154 66.0671 143.459 66.4996 143.873 66.8231C144.294 67.1466 144.795 67.3084 145.374 67.3084C145.675 67.3084 146.002 67.252 146.356 67.1391C146.717 67.0263 147.074 66.8871 147.428 66.7216C147.781 66.5485 148.12 66.3642 148.443 66.1686C148.767 65.973 149.045 65.7962 149.278 65.6382L148.737 70.7615C148.443 70.9872 148.124 71.179 147.777 71.337C147.439 71.495 147.085 71.6229 146.717 71.7207C146.348 71.8185 145.976 71.89 145.6 71.9351C145.223 71.9803 144.855 72.0028 144.494 72.0028C143.749 72.0028 143.068 71.9013 142.451 71.6981C141.834 71.495 141.274 71.2129 140.77 70.8518C140.273 70.4832 139.837 70.0506 139.461 69.554C139.084 69.0575 138.772 68.5158 138.524 67.929C138.276 67.3422 138.088 66.7216 137.96 66.0671C137.832 65.4125 137.768 64.7505 137.768 64.081C137.768 63.3813 137.832 62.6816 137.96 61.982C138.088 61.2823 138.279 60.609 138.535 59.962C138.799 59.315 139.126 58.7169 139.517 58.1678C139.916 57.611 140.378 57.1258 140.905 56.712C141.432 56.2983 142.026 55.9748 142.688 55.7415C143.358 55.5083 144.095 55.3917 144.9 55.3917C145.569 55.3917 146.179 55.4858 146.728 55.6738C147.285 55.8544 147.777 56.1102 148.206 56.4412C148.643 56.7647 149.019 57.1521 149.335 57.6035C149.658 58.0549 149.922 58.5514 150.125 59.0931C150.335 59.6272 150.49 60.1952 150.587 60.7971C150.693 61.3914 150.745 61.997 150.745 62.6139ZM146.231 62.0271C146.231 61.8165 146.209 61.6021 146.164 61.3839C146.119 61.1582 146.043 60.9551 145.938 60.7745C145.84 60.594 145.709 60.4473 145.543 60.3344C145.378 60.2141 145.171 60.1539 144.922 60.1539C144.621 60.1539 144.354 60.2366 144.121 60.4021C143.896 60.5601 143.7 60.7632 143.534 61.0115C143.369 61.2522 143.233 61.5156 143.128 61.8014C143.023 62.0873 142.944 62.3506 142.891 62.5914L146.231 62.2754V62.0271ZM164.716 60.8535C164.716 61.4403 164.663 61.9745 164.558 62.456C164.46 62.9299 164.302 63.3663 164.084 63.765C163.866 64.1637 163.584 64.5323 163.238 64.8709C162.891 65.2094 162.474 65.5329 161.985 65.8414L164.671 70.6261L159.593 71.6191L157.855 66.8119L156.455 66.857L156.252 71.5514H151.4C151.437 69.8362 151.471 68.1284 151.501 66.4282C151.539 64.7279 151.58 63.0202 151.626 61.3049C151.641 60.4397 151.656 59.5821 151.671 58.732C151.686 57.8819 151.716 57.0242 151.761 56.1591C152.288 55.9635 152.807 55.8017 153.318 55.6738C153.83 55.5459 154.341 55.4481 154.853 55.3804C155.372 55.3052 155.895 55.2563 156.422 55.2337C156.956 55.2036 157.501 55.1886 158.058 55.1886C158.915 55.1886 159.743 55.309 160.54 55.5497C161.345 55.7829 162.056 56.1365 162.673 56.6105C163.29 57.0844 163.783 57.675 164.152 58.3822C164.528 59.0893 164.716 59.9131 164.716 60.8535ZM159.66 61.2146C159.66 60.8987 159.615 60.609 159.525 60.3457C159.442 60.0824 159.314 59.8567 159.141 59.6686C158.976 59.473 158.765 59.3226 158.509 59.2172C158.261 59.1044 157.968 59.048 157.629 59.048C157.479 59.048 157.332 59.0593 157.189 59.0818C157.046 59.0969 156.907 59.1232 156.771 59.1608L156.591 63.3587H156.862C157.185 63.3587 157.512 63.3174 157.843 63.2346C158.182 63.1518 158.483 63.024 158.746 62.8509C159.017 62.6779 159.235 62.456 159.401 62.1851C159.574 61.9143 159.66 61.5908 159.66 61.2146ZM179.454 63.0879C179.454 63.7725 179.375 64.4345 179.217 65.074C179.059 65.706 178.829 66.3003 178.528 66.857C178.235 67.4137 177.874 67.9253 177.445 68.3917C177.024 68.8506 176.546 69.2456 176.012 69.5766C175.485 69.9076 174.91 70.1672 174.285 70.3553C173.661 70.5358 172.999 70.6261 172.299 70.6261C171.622 70.6261 170.975 70.5396 170.358 70.3665C169.749 70.1935 169.177 69.9528 168.643 69.6443C168.109 69.3283 167.624 68.9522 167.187 68.5158C166.758 68.072 166.39 67.583 166.081 67.0488C165.78 66.5072 165.543 65.9279 165.37 65.311C165.205 64.6941 165.122 64.0509 165.122 63.3813C165.122 62.7268 165.201 62.0873 165.359 61.4629C165.517 60.831 165.743 60.2366 166.036 59.6799C166.337 59.1232 166.698 58.6116 167.119 58.1452C167.541 57.6788 168.011 57.2763 168.53 56.9377C169.057 56.5992 169.625 56.3359 170.234 56.1478C170.843 55.9597 171.487 55.8657 172.164 55.8657C173.255 55.8657 174.248 56.0349 175.143 56.3735C176.046 56.712 176.813 57.1973 177.445 57.8292C178.084 58.4536 178.577 59.2135 178.923 60.1087C179.277 60.9965 179.454 61.9895 179.454 63.0879ZM174.443 63.3813C174.443 63.0578 174.394 62.7456 174.297 62.4447C174.206 62.1362 174.071 61.8654 173.89 61.6322C173.71 61.3914 173.484 61.1996 173.213 61.0566C172.95 60.9062 172.645 60.831 172.299 60.831C171.946 60.831 171.63 60.8949 171.351 61.0228C171.073 61.1507 170.832 61.3275 170.629 61.5532C170.433 61.7713 170.283 62.0309 170.178 62.3318C170.072 62.6252 170.02 62.9374 170.02 63.2685C170.02 63.5844 170.065 63.9004 170.155 64.2164C170.245 64.5323 170.381 64.8182 170.561 65.074C170.742 65.3298 170.964 65.5367 171.227 65.6947C171.498 65.8527 171.81 65.9316 172.164 65.9316C172.517 65.9316 172.833 65.8639 173.112 65.7285C173.398 65.5856 173.638 65.3975 173.834 65.1643C174.029 64.9235 174.18 64.649 174.285 64.3405C174.391 64.0321 174.443 63.7123 174.443 63.3813ZM196.234 66.3153L195.241 66.3379L195.038 71.2129L189.937 71.6643L190.208 66.4507L184.182 66.5862L185.852 56.6782H190.118L188.876 63.5844L190.366 63.5393L190.795 54.9855H195.692L195.354 63.3587L196.234 63.3136V66.3153ZM208.67 66.0445C208.67 67.0225 208.493 67.8726 208.139 68.5948C207.793 69.3171 207.319 69.9152 206.718 70.3891C206.116 70.8631 205.409 71.2167 204.596 71.4499C203.784 71.6831 202.915 71.7997 201.989 71.7997C201.545 71.7997 201.109 71.7696 200.68 71.7094C200.251 71.6417 199.826 71.5552 199.405 71.4499C198.991 71.337 198.578 71.2091 198.164 71.0662C197.757 70.9233 197.347 70.769 196.934 70.6035L197.363 66.1122C197.633 66.2627 197.923 66.4018 198.231 66.5297C198.54 66.6576 198.856 66.7667 199.179 66.857C199.51 66.9473 199.841 67.0187 200.172 67.0714C200.511 67.1241 200.838 67.1504 201.154 67.1504C201.342 67.1504 201.572 67.1354 201.843 67.1053C202.113 67.0676 202.373 67.0037 202.621 66.9134C202.869 66.8156 203.08 66.6877 203.253 66.5297C203.434 66.3642 203.524 66.1498 203.524 65.8865C203.524 65.6382 203.453 65.4238 203.31 65.2433C203.174 65.0627 202.994 64.916 202.768 64.8032C202.55 64.6828 202.301 64.5888 202.023 64.5211C201.745 64.4533 201.463 64.4007 201.177 64.3631C200.898 64.3255 200.631 64.3029 200.376 64.2954C200.127 64.2878 199.92 64.2841 199.755 64.2841C199.416 64.2841 199.07 64.2991 198.717 64.3292C198.371 64.3593 198.032 64.4195 197.701 64.5098L198.152 55.3917L207.293 55.1435L207.541 59.8605L201.876 59.5445L201.764 61.5532C202.102 61.4704 202.441 61.4102 202.779 61.3726C203.118 61.3275 203.456 61.3049 203.795 61.3049C204.479 61.3049 205.115 61.4178 205.702 61.6435C206.296 61.8616 206.812 62.1776 207.248 62.5914C207.692 63.0051 208.038 63.5054 208.286 64.0922C208.542 64.6715 208.67 65.3223 208.67 66.0445Z" fill="#FCFFFC"/>
</svg>
