<svg width="300" height="300" viewBox="0 0 300 300" fill="none" xmlns="http://www.w3.org/2000/svg">
<path d="M241.32 158.712C220.898 152.046 196.33 150.255 177.944 150.026V149.974C196.33 149.745 220.899 147.954 241.32 141.288C251.164 139.12 260.988 133.858 269.18 125.666C288.775 106.071 291.594 77.1211 275.476 61.0031C268.574 54.102 259.32 50.6725 249.455 50.5453C249.328 40.6805 245.898 31.4256 238.997 24.5244C222.879 8.40645 193.928 11.2254 174.334 30.8203C166.142 39.0117 160.882 48.8391 158.712 58.6799C152.046 79.1016 150.255 103.67 150.026 122.056H149.974C149.745 103.67 147.954 79.1004 141.288 58.6799C139.12 48.8361 133.858 39.0117 125.666 30.8203C106.072 11.2254 77.1211 8.40645 61.0031 24.5244C54.102 31.4256 50.6725 40.6805 50.5453 50.5453C40.6799 50.6725 31.4256 54.102 24.5244 61.0031C8.40645 77.1211 11.2254 106.071 30.8203 125.666C39.0123 133.858 48.8391 139.117 58.6799 141.288C79.1016 147.954 103.67 149.745 122.056 149.974V150.026C103.67 150.255 79.101 152.046 58.6799 158.712C48.8361 160.88 39.0123 166.142 30.8203 174.334C11.2254 193.929 8.40645 222.879 24.5244 238.997C31.4256 245.898 40.6799 249.328 50.5453 249.455C50.6725 259.32 54.102 268.574 61.0031 275.476C77.1211 291.594 106.072 288.776 125.666 269.18C133.858 260.988 139.118 251.161 141.288 241.32C147.954 220.898 149.745 196.33 149.974 177.944H150.026C150.255 196.33 152.046 220.9 158.712 241.32C160.88 251.164 166.142 260.988 174.334 269.18C193.928 288.775 222.879 291.594 238.997 275.476C245.898 268.574 249.328 259.32 249.455 249.455C259.32 249.328 268.574 245.898 275.476 238.997C291.594 222.879 288.776 193.929 269.18 174.334C260.988 166.142 251.161 160.883 241.32 158.712V158.712Z" fill="#8AC563"/>
<path d="M223.056 156.973C206.719 151.641 187.064 150.207 172.355 150.024V149.982C187.062 149.799 206.719 148.366 223.056 143.033C231.522 141.069 239.252 136.734 245.344 130.536C261.02 114.86 263.273 91.6998 250.383 78.8057C244.862 73.2844 237.458 70.541 229.566 70.4397C229.464 62.5471 226.721 55.1432 221.2 49.6225C208.305 36.7283 185.145 38.983 169.47 54.6615C163.273 60.7516 158.938 68.4803 156.973 76.9436C151.641 93.2807 150.207 112.936 150.024 127.645H149.982C149.799 112.938 148.366 93.2807 143.033 76.9436C141.068 68.478 136.732 60.7473 130.533 54.6563C114.857 38.9801 91.6969 36.7266 78.8028 49.6172C73.2815 55.1379 70.5381 62.5418 70.4362 70.4344C62.5442 70.5358 55.1403 73.2791 49.6196 78.8004C36.7254 91.6945 38.9801 114.855 54.6586 130.53C60.7501 136.728 68.4807 141.063 76.9459 143.028C93.283 148.36 112.938 149.794 127.647 149.977V150.019C112.94 150.202 93.283 151.634 76.9459 156.967C68.4796 158.932 60.7481 163.268 54.6563 169.467C38.9801 185.143 36.7266 208.303 49.6172 221.197C55.1379 226.719 62.5418 229.462 70.4338 229.563C70.5358 237.456 73.2791 244.856 78.8004 250.38C91.6946 263.275 114.855 261.02 130.53 245.341C136.728 239.25 141.063 231.519 143.028 223.054C148.36 206.717 149.794 187.062 149.977 172.353H150.019C150.202 187.06 151.634 206.717 156.967 223.054C158.932 231.519 163.267 239.25 169.465 245.341C185.14 261.018 208.301 263.271 221.195 250.38C226.716 244.859 229.46 237.456 229.562 229.563C237.454 229.462 244.857 226.719 250.378 221.197C263.272 208.303 261.018 185.143 245.339 169.467C239.249 163.271 231.52 158.937 223.056 156.973V156.973Z" fill="#96C576"/>
</svg>
