<svg width="231" height="180" viewBox="0 0 231 180" fill="none" xmlns="http://www.w3.org/2000/svg">
<path d="M222.865 89.7662C218.073 90.2339 213.282 87.4287 211.365 82.7532C209.448 78.0777 210.886 72.935 214.24 69.6622L211.844 64.5195C207.052 64.9871 202.261 62.1819 200.344 57.5065C198.427 52.831 199.865 47.6883 203.219 44.4154L200.824 39.2727C196.032 39.7404 191.24 36.9352 189.324 32.2597C187.407 27.5843 188.844 22.4416 192.199 19.1687L190.282 14.9609C184.052 17.7661 176.386 14.9609 173.99 8.41562L7.23992 78.5454C10.1149 84.6235 7.23992 92.1037 0.531738 94.4416L2.44855 98.6494C7.24037 98.1818 12.0317 100.987 13.9486 105.662C15.8654 110.338 14.4279 115.481 11.0736 118.753L13.4692 123.896C18.2611 123.428 23.0524 126.234 24.9692 130.909C26.8861 135.585 25.4486 140.727 22.0942 144L24.4899 149.143C29.2817 148.675 34.0731 151.48 35.9899 156.156C37.9067 160.831 36.4692 165.974 33.1149 169.247L35.0317 173.455C41.2611 170.65 48.9274 173.455 51.3235 180L218.074 110.338C215.199 104.26 218.074 96.7796 224.782 94.4416L222.865 89.7662Z" fill="#FF7058"/>
<path d="M194.115 96.7792L58.0317 153.35L31.1985 91.636L167.282 34.5973L194.115 96.7792ZM61.386 145.402L185.969 93.0386L163.927 43.0128L39.3442 95.3766L61.386 145.402Z" fill="#FFD15C"/>
<path d="M75.4235 105.42L79.7738 117.933L75.1781 120.212L69.9474 114.634L72.2786 121.479L68.1797 123.064L63.2726 110.117L67.7383 108.14L73.548 113.431L71.1833 107.226L75.4235 105.42ZM87.1239 101.168C87.717 103.396 88.3459 105.599 89.0105 107.777C89.6727 109.95 90.3501 112.134 91.0428 114.33L87.419 116.045L87.0145 114.589C86.9496 114.775 86.8561 114.95 86.734 115.116C86.618 115.28 86.4824 115.43 86.3273 115.567C86.1698 115.697 86 115.815 85.818 115.921C85.6335 116.02 85.452 116.1 85.2734 116.162C84.858 116.316 84.4374 116.388 84.0115 116.378C83.5832 116.362 83.1655 116.286 82.7585 116.151C82.3491 116.009 81.954 115.816 81.5733 115.573C81.1901 115.323 80.8372 115.044 80.5146 114.736C80.1955 114.42 79.9105 114.083 79.6594 113.727C79.4145 113.368 79.2169 113.005 79.0668 112.637C78.8452 112.095 78.6255 111.53 78.4074 110.945C78.193 110.351 77.9937 109.751 77.8096 109.145C77.6255 108.539 77.4591 107.934 77.3103 107.328C77.1676 106.72 77.0559 106.129 76.9754 105.552C77.731 105.302 78.4884 105.048 79.2476 104.789C80.0068 104.531 80.7544 104.252 81.4903 103.954C81.5648 104.532 81.6404 105.113 81.7174 105.698C81.7979 106.274 81.893 106.851 82.0028 107.43C82.1101 108.002 82.2398 108.57 82.3921 109.132C82.5443 109.694 82.7324 110.25 82.9564 110.798C83.0081 110.925 83.088 111.103 83.1961 111.334C83.3043 111.564 83.4294 111.784 83.5715 111.995C83.7197 112.202 83.8811 112.374 84.0557 112.509C84.2339 112.635 84.4202 112.661 84.6145 112.586C84.8452 112.497 85.0123 112.32 85.1157 112.057C85.2167 111.788 85.2693 111.46 85.2736 111.075C85.2779 110.689 85.24 110.261 85.16 109.789C85.086 109.315 84.9864 108.831 84.8612 108.335C84.7397 107.83 84.6017 107.329 84.4473 106.83C84.2929 106.332 84.1387 105.868 83.9846 105.439C83.8342 105.001 83.6931 104.613 83.5613 104.273C83.4356 103.931 83.3346 103.666 83.2583 103.479C83.2091 103.359 83.1581 103.242 83.1052 103.13C83.0524 103.018 82.9953 102.904 82.9339 102.788C83.3336 102.648 83.7289 102.505 84.12 102.361C84.5111 102.217 84.904 102.069 85.2987 101.916C85.6024 101.799 85.906 101.681 86.2096 101.564C86.5168 101.438 86.8216 101.306 87.1239 101.168ZM106.287 101.402C106.639 102.263 106.963 103.133 107.257 104.01C107.552 104.887 107.839 105.77 108.118 106.661L103.525 108.688C103.237 107.585 102.933 106.488 102.614 105.397C102.299 104.298 101.925 103.22 101.495 102.166C101.468 102.099 101.418 101.986 101.345 101.826C101.27 101.659 101.181 101.474 101.076 101.27C100.978 101.064 100.868 100.855 100.747 100.644C100.629 100.424 100.508 100.23 100.383 100.062C100.262 99.8858 100.143 99.7503 100.027 99.6555C99.9108 99.5608 99.8073 99.5311 99.7162 99.5663C99.5036 99.6484 99.3699 99.7944 99.3149 100.004C99.2574 100.208 99.2439 100.433 99.2742 100.679C99.3106 100.923 99.3707 101.165 99.4546 101.405C99.536 101.639 99.6062 101.828 99.6653 101.973C99.7686 102.226 99.8781 102.477 99.9936 102.725C100.109 102.974 100.221 103.23 100.329 103.496C100.711 104.43 101.067 105.37 101.397 106.317C101.734 107.262 102.059 108.214 102.374 109.174L98.123 111.006C97.8344 109.904 97.5288 108.811 97.2063 107.728C96.8873 106.637 96.5125 105.564 96.0818 104.51C96.0547 104.443 96.0025 104.324 95.925 104.151C95.8476 103.979 95.7554 103.788 95.6486 103.578C95.5479 103.366 95.4343 103.148 95.308 102.924C95.1816 102.701 95.0548 102.502 94.9274 102.328C94.8037 102.146 94.6826 102.004 94.5641 101.904C94.4456 101.803 94.3378 101.771 94.2407 101.809C94.0888 101.867 93.9859 101.977 93.9319 102.137C93.8755 102.292 93.852 102.475 93.8615 102.688C93.8771 102.898 93.9134 103.125 93.9705 103.368C94.0312 103.603 94.0967 103.832 94.1671 104.056C94.2436 104.278 94.3169 104.484 94.3871 104.673C94.461 104.854 94.5133 104.99 94.5442 105.083L97.0388 111.76L92.448 113.535C92.1293 112.479 91.8092 111.42 91.488 110.358C91.1728 109.293 90.8437 108.237 90.5006 107.191C90.1612 106.136 89.8065 105.086 89.4367 104.043C89.0669 102.999 88.6727 101.965 88.2543 100.941L92.5162 99.0837L92.9262 100.14C92.9909 99.9191 93.0738 99.6917 93.1749 99.4572C93.2736 99.2166 93.39 98.9937 93.5241 98.7883C93.6618 98.5746 93.8197 98.3844 93.9977 98.2179C94.1819 98.049 94.3893 97.9199 94.6201 97.8307C94.9176 97.7157 95.1947 97.6365 95.4512 97.5932C95.7052 97.5438 95.9485 97.537 96.1811 97.5727C96.4197 97.606 96.6513 97.691 96.8758 97.8275C97.0978 97.958 97.3225 98.1468 97.55 98.3939C97.6581 98.1078 97.7725 97.8368 97.893 97.5808C98.0195 97.3225 98.1662 97.0878 98.3332 96.8768C98.4976 96.6596 98.6926 96.4656 98.9181 96.2947C99.1436 96.1238 99.4112 95.9784 99.7209 95.8587C100.31 95.631 100.858 95.5518 101.364 95.6212C101.868 95.6846 102.333 95.8503 102.759 96.1184C103.191 96.3841 103.581 96.7287 103.93 97.1521C104.285 97.5733 104.607 98.0278 104.898 98.5156C105.189 99.0034 105.448 99.5 105.675 100.005C105.908 100.508 106.113 100.974 106.287 101.402ZM116.811 95.9723C117.025 96.4967 117.202 97.0352 117.344 97.5877C116.332 98.0555 115.344 98.563 114.38 99.1105C113.412 99.6519 112.445 100.193 111.478 100.735C111.813 101.108 112.201 101.359 112.64 101.489C113.086 101.617 113.543 101.59 114.011 101.41C114.254 101.316 114.499 101.168 114.748 100.968C115.002 100.764 115.245 100.541 115.476 100.299C115.705 100.05 115.918 99.7963 116.115 99.5386C116.312 99.2809 116.479 99.0524 116.616 98.8531L117.855 103.127C117.692 103.399 117.496 103.653 117.269 103.887C117.047 104.119 116.804 104.332 116.538 104.526C116.273 104.719 115.995 104.892 115.706 105.046C115.418 105.199 115.127 105.333 114.836 105.445C114.235 105.678 113.652 105.809 113.088 105.839C112.523 105.868 111.979 105.817 111.454 105.685C110.932 105.545 110.438 105.334 109.972 105.054C109.506 104.774 109.077 104.437 108.685 104.044C108.292 103.652 107.938 103.213 107.62 102.729C107.303 102.244 107.035 101.734 106.816 101.197C106.587 100.637 106.409 100.056 106.284 99.4558C106.158 98.8554 106.093 98.2561 106.087 97.6579C106.088 97.0574 106.157 96.4761 106.293 95.914C106.433 95.3436 106.647 94.8105 106.937 94.3146C107.227 93.8188 107.601 93.3742 108.059 92.9807C108.523 92.5849 109.08 92.2615 109.73 92.0103C110.27 91.8013 110.793 91.6865 111.297 91.6658C111.806 91.6367 112.287 91.6879 112.742 91.8193C113.2 91.9423 113.63 92.1353 114.033 92.3984C114.442 92.659 114.817 92.9747 115.158 93.3453C115.503 93.7075 115.813 94.1144 116.089 94.5661C116.368 95.0093 116.609 95.4781 116.811 95.9723ZM112.975 96.9108C112.906 96.742 112.818 96.5773 112.71 96.4166C112.6 96.2499 112.473 96.1106 112.329 95.9988C112.191 95.8847 112.036 95.8082 111.866 95.7695C111.693 95.7247 111.506 95.741 111.306 95.8185C111.063 95.9124 110.874 96.062 110.74 96.2674C110.61 96.4644 110.518 96.6882 110.466 96.9387C110.411 97.1832 110.388 97.4365 110.396 97.6984C110.405 97.9603 110.427 98.1959 110.464 98.4052L113.056 97.1097L112.975 96.9108ZM127.511 90.2024C127.703 90.6726 127.835 91.1169 127.908 91.5355C127.984 91.9458 127.999 92.3447 127.954 92.7322C127.908 93.1197 127.801 93.5031 127.632 93.8823C127.464 94.2615 127.232 94.651 126.939 95.0507L130.672 98.0459L126.898 100.426L123.922 97.1171L122.808 97.5899L124.18 101.414L120.263 102.928C119.732 101.543 119.201 100.164 118.669 98.7922C118.143 97.4183 117.618 96.0372 117.093 94.6489C116.822 93.9511 116.553 93.2593 116.288 92.5735C116.022 91.8877 115.765 91.1912 115.519 90.484C115.88 90.163 116.246 89.8714 116.617 89.6093C116.988 89.3472 117.369 89.1092 117.76 88.8953C118.154 88.6731 118.56 88.4707 118.978 88.2883C119.399 88.0975 119.834 87.9153 120.284 87.7415C120.976 87.4739 121.683 87.3121 122.406 87.2561C123.132 87.1918 123.821 87.2532 124.474 87.4404C125.127 87.6276 125.718 87.947 126.247 88.3985C126.782 88.8477 127.203 89.449 127.511 90.2024ZM123.549 92.0693C123.445 91.8162 123.314 91.5982 123.155 91.4154C123.002 91.2303 122.825 91.0894 122.624 90.9927C122.426 90.8877 122.207 90.8328 121.966 90.8283C121.729 90.8153 121.473 90.8617 121.2 90.9673C121.079 91.0143 120.964 91.0691 120.856 91.1318C120.746 91.1885 120.642 91.253 120.545 91.3254L121.773 94.7449L121.991 94.6604C122.252 94.5595 122.503 94.4242 122.743 94.2546C122.989 94.0827 123.19 93.8863 123.346 93.6655C123.508 93.4424 123.612 93.1965 123.657 92.9279C123.708 92.6569 123.672 92.3707 123.549 92.0693ZM140.138 87.3935C140.362 87.942 140.515 88.4971 140.596 89.0587C140.676 89.6143 140.685 90.162 140.624 90.702C140.569 91.2395 140.445 91.7621 140.252 92.2696C140.062 92.7687 139.805 93.2342 139.483 93.6661C139.166 94.0956 138.786 94.4832 138.344 94.8287C137.899 95.1682 137.394 95.4471 136.829 95.6655C136.283 95.8767 135.732 96.0093 135.178 96.0632C134.629 96.1147 134.089 96.1003 133.557 96.0198C133.022 95.9334 132.508 95.7834 132.013 95.57C131.521 95.3482 131.064 95.0715 130.64 94.7398C130.22 94.3997 129.839 94.0096 129.498 93.5693C129.162 93.1268 128.885 92.6372 128.666 92.1008C128.452 91.5764 128.306 91.0395 128.23 90.4899C128.15 89.9343 128.138 89.3877 128.193 88.8502C128.254 88.3102 128.378 87.7877 128.565 87.2825C128.753 86.7774 129.001 86.3082 129.309 85.875C129.623 85.4394 129.995 85.0512 130.426 84.7104C130.856 84.3696 131.345 84.0935 131.891 83.8822C132.772 83.5418 133.628 83.3675 134.462 83.3594C135.301 83.3489 136.079 83.4982 136.796 83.8073C137.517 84.108 138.163 84.563 138.735 85.1722C139.311 85.7731 139.779 86.5136 140.138 87.3935ZM136.19 89.1921C136.084 88.9329 135.942 88.6981 135.765 88.4875C135.591 88.2686 135.393 88.0938 135.171 87.9633C134.947 87.8268 134.702 87.7435 134.436 87.7135C134.175 87.6752 133.904 87.71 133.625 87.8179C133.339 87.9283 133.105 88.0781 132.922 88.2674C132.74 88.4568 132.603 88.6735 132.513 88.9177C132.426 89.1536 132.39 89.4085 132.403 89.6824C132.414 89.9503 132.474 90.2169 132.582 90.4821C132.686 90.7353 132.825 90.9743 133.002 91.1993C133.178 91.4243 133.381 91.611 133.61 91.7596C133.84 91.9082 134.086 92.0047 134.351 92.0491C134.621 92.0912 134.899 92.057 135.184 91.9467C135.47 91.8364 135.702 91.6835 135.883 91.4882C136.067 91.2844 136.2 91.0586 136.281 90.8107C136.36 90.5568 136.392 90.2899 136.376 90.0099C136.36 89.7299 136.298 89.4573 136.19 89.1921ZM154.738 84.7429L153.944 85.0708L155.375 89.0399L151.406 90.9932L149.919 86.7318L145.099 88.7207L143.206 80.2617L146.649 78.9306L147.906 84.8509L149.094 84.35L146.641 77.3631L150.595 75.8348L153.061 82.6488L153.756 82.338L154.738 84.7429ZM164.687 80.6453C165.007 81.4288 165.143 82.1651 165.094 82.854C165.051 83.5406 164.864 84.1677 164.533 84.7352C164.202 85.3028 163.747 85.8067 163.168 86.2471C162.588 86.6875 161.925 87.0521 161.178 87.3408C160.82 87.4793 160.458 87.5914 160.092 87.677C159.724 87.7566 159.352 87.8199 158.978 87.867C158.607 87.9057 158.231 87.9323 157.85 87.9469C157.475 87.9592 157.094 87.9636 156.706 87.9601L155.583 84.228C155.851 84.264 156.13 84.2851 156.421 84.2914C156.712 84.2976 157.002 84.2864 157.293 84.2577C157.59 84.2268 157.88 84.1807 158.165 84.1196C158.455 84.0562 158.728 83.9752 158.983 83.8766C159.135 83.8179 159.315 83.7342 159.524 83.6256C159.73 83.5109 159.919 83.3787 160.089 83.2289C160.258 83.0731 160.386 82.9049 160.474 82.7243C160.566 82.5354 160.568 82.3354 160.482 82.1245C160.401 81.9256 160.273 81.7761 160.099 81.6761C159.93 81.5737 159.737 81.5125 159.518 81.4925C159.302 81.4641 159.071 81.4663 158.824 81.4989C158.577 81.5315 158.332 81.5773 158.089 81.6364C157.852 81.6931 157.629 81.7584 157.42 81.8322C157.218 81.9036 157.049 81.9652 156.916 82.0168C156.642 82.1225 156.368 82.2425 156.092 82.377C155.823 82.5091 155.569 82.6629 155.332 82.8385L152.713 75.3926L160.01 72.3414L161.753 76.043L157.078 77.5576L157.644 79.2021C157.89 79.0302 158.143 78.8763 158.404 78.7405C158.663 78.5987 158.929 78.475 159.202 78.3694C159.755 78.1557 160.305 78.0478 160.852 78.0455C161.403 78.0348 161.922 78.1271 162.41 78.3225C162.904 78.5154 163.347 78.8083 163.739 79.2009C164.135 79.5852 164.451 80.0667 164.687 80.6453Z" fill="#FCFFFC"/>
<path opacity="0.1" d="M210.886 82.7532C208.969 78.0777 210.406 72.935 213.761 69.6621L211.365 64.5194C206.573 64.9871 201.782 62.1819 199.865 57.5065C197.948 52.831 199.386 47.6883 202.74 44.4154L200.344 39.2727C195.553 39.7404 190.761 36.9352 188.844 32.2597C186.928 27.5843 188.365 22.4416 191.719 19.1687L189.803 14.9609C183.573 17.7661 175.907 14.9609 173.511 8.41562L16.8232 73.8699V76.2074L21.6151 77.61C23.0526 78.0777 24.9694 79.4803 24.9694 81.8178C24.9694 84.1553 23.5319 85.5579 21.6151 86.0256L16.8232 87.4282V103.792H24.4901C27.3651 103.792 29.7607 106.129 29.7607 108.934V115.947H201.303L218.073 108.934C215.198 102.856 218.073 95.3761 224.781 93.0381L222.865 89.7653C218.073 90.2334 213.281 87.4282 210.886 82.7532Z" fill="#231F20"/>
<path d="M230.532 93.0386C225.74 91.636 222.386 87.4282 222.386 82.2855C222.386 77.1428 225.74 72.935 230.532 71.5324V65.4543C225.74 64.0517 222.386 59.844 222.386 54.7012C222.386 49.5585 225.74 45.3508 230.532 43.9482V38.3378C225.74 36.9352 222.386 32.7274 222.386 27.5847C222.386 22.442 225.74 18.2337 230.532 16.8312V12.1557C223.824 12.1557 218.074 6.5453 218.074 0H36.9486C36.9486 6.5453 31.1986 12.1557 24.4904 12.1557V16.3635C29.2818 17.7661 32.6361 21.9739 32.6361 27.1166C32.6361 32.2593 28.8029 36.4671 24.4904 38.3373V44.4154C29.2823 45.818 32.6361 50.0258 32.6361 55.1685C32.6361 60.3112 29.2818 64.5194 24.49 65.922V72.0001C29.2818 73.4027 32.6357 77.6105 32.6357 82.7532C32.6361 87.8959 29.2818 92.1037 24.49 93.5063V97.7141C31.1982 97.7141 36.9482 103.324 36.9482 109.87H218.073C218.073 103.324 223.823 97.7141 230.531 97.7141L230.532 93.0386Z" fill="#FF7058"/>
<path d="M201.302 88.3635H53.24V21.5062H201.302V88.3635ZM59.4693 82.2855H195.074V27.5843H59.4693V82.2855Z" fill="#FFD15C"/>
<path d="M88.6296 48.2257L87.9265 61.4679L82.8093 61.9366L80.075 54.8468L79.6453 62.0734H75.2507L75.6023 48.2257L80.4851 47.9913L83.864 55.0226L84.0203 48.382L88.6296 48.2257ZM101.071 48.4796C100.778 50.7713 100.527 53.0532 100.319 55.3253C100.111 57.5909 99.9122 59.8728 99.7234 62.171L95.7195 62.464L95.8953 60.9601C95.7651 61.1098 95.6121 61.24 95.4363 61.3507C95.267 61.4614 95.0847 61.5525 94.8894 61.6241C94.6941 61.6892 94.4923 61.7381 94.2839 61.7706C94.0756 61.7967 93.877 61.8064 93.6882 61.7999C93.2455 61.7934 92.8289 61.7088 92.4382 61.546C92.0476 61.3767 91.6895 61.1554 91.364 60.882C91.0385 60.602 90.7455 60.2797 90.4851 59.9152C90.2247 59.5441 90.0033 59.1567 89.821 58.7531C89.6453 58.3429 89.5085 57.9262 89.4109 57.5031C89.3197 57.0799 89.2742 56.6697 89.2742 56.2726C89.2742 55.6866 89.2839 55.0812 89.3035 54.4562C89.3295 53.8247 89.3718 53.1932 89.4304 52.5616C89.489 51.9301 89.5639 51.3051 89.655 50.6866C89.7527 50.0682 89.8731 49.4757 90.0164 48.9093C90.8106 48.9484 91.6082 48.9842 92.4089 49.0167C93.2097 49.0493 94.0072 49.059 94.8015 49.046C94.6518 49.6124 94.502 50.1821 94.3523 50.755C94.2091 51.3214 94.0789 51.8943 93.9617 52.4738C93.8445 53.0467 93.7501 53.6228 93.6785 54.2023C93.6069 54.7817 93.571 55.3676 93.571 55.9601C93.571 56.0968 93.5776 56.2921 93.5906 56.546C93.6036 56.7999 93.6361 57.0506 93.6882 57.298C93.7468 57.5454 93.8315 57.7635 93.9421 57.9523C94.0593 58.1346 94.2221 58.2257 94.4304 58.2257C94.6778 58.2257 94.8992 58.1215 95.0945 57.9132C95.2898 57.6984 95.4623 57.4119 95.6121 57.0538C95.7618 56.6958 95.8888 56.2823 95.9929 55.8136C96.1036 55.3448 96.1947 54.8566 96.2664 54.3488C96.3445 53.8344 96.4063 53.3169 96.4519 52.796C96.4975 52.2752 96.53 51.7869 96.5496 51.3312C96.5756 50.8689 96.5919 50.4555 96.5984 50.0909C96.6114 49.7264 96.6179 49.4432 96.6179 49.2413C96.6179 49.1111 96.6147 48.9842 96.6082 48.8605C96.6016 48.7368 96.5919 48.6098 96.5789 48.4796C97.002 48.4926 97.422 48.5024 97.8386 48.5089C98.2553 48.5154 98.6752 48.5187 99.0984 48.5187C99.4239 48.5187 99.7494 48.5187 100.075 48.5187C100.407 48.5122 100.739 48.4991 101.071 48.4796ZM100.309 45.7843C99.5346 46.2075 98.7794 46.6372 98.0437 47.0734C97.308 47.5031 96.5723 47.9718 95.8367 48.4796L94.5867 47.1124C94.7169 46.9562 94.8731 46.7837 95.0554 46.5948C95.2377 46.3995 95.4298 46.201 95.6316 45.9991C95.8399 45.7973 96.0548 45.5955 96.2761 45.3937C96.4975 45.1853 96.7123 44.9868 96.9207 44.798C97.4154 44.3488 97.933 43.8963 98.4734 43.4406L100.309 45.7843ZM118.727 55.6085C118.727 56.5395 118.698 57.4672 118.639 58.3917C118.581 59.3162 118.512 60.2439 118.434 61.1749L113.415 61.4093C113.565 60.2765 113.698 59.1437 113.815 58.0109C113.939 56.8715 114.001 55.7322 114.001 54.5929C114.001 54.5213 113.997 54.3976 113.991 54.2218C113.984 54.0395 113.971 53.8344 113.952 53.6066C113.939 53.3787 113.916 53.1443 113.884 52.9034C113.858 52.656 113.818 52.4314 113.766 52.2296C113.721 52.0213 113.662 51.852 113.591 51.7218C113.519 51.5916 113.434 51.5265 113.337 51.5265C113.109 51.5265 112.93 51.6144 112.8 51.7902C112.669 51.9594 112.572 52.1645 112.507 52.4054C112.448 52.6463 112.412 52.8937 112.399 53.1476C112.386 53.395 112.38 53.5968 112.38 53.7531C112.38 54.0265 112.386 54.2999 112.399 54.5734C112.412 54.8468 112.419 55.1267 112.419 55.4132C112.419 56.4223 112.393 57.4282 112.341 58.4308C112.295 59.4334 112.236 60.4392 112.165 61.4484L107.536 61.6241C107.686 60.4913 107.816 59.3618 107.927 58.2355C108.044 57.1027 108.102 55.9666 108.102 54.8273C108.102 54.7557 108.099 54.6254 108.093 54.4366C108.086 54.2478 108.073 54.0363 108.053 53.8019C108.04 53.5675 108.018 53.3234 107.985 53.0695C107.953 52.8156 107.91 52.5844 107.858 52.3761C107.813 52.1613 107.754 51.9855 107.682 51.8488C107.611 51.712 107.523 51.6437 107.419 51.6437C107.256 51.6437 107.119 51.7088 107.009 51.839C106.898 51.9627 106.807 52.1254 106.735 52.3273C106.67 52.5291 106.618 52.7537 106.579 53.0011C106.546 53.242 106.52 53.4796 106.501 53.714C106.488 53.9484 106.478 54.1665 106.471 54.3683C106.471 54.5636 106.468 54.7101 106.462 54.8077L106.247 61.9366H101.325C101.429 60.8364 101.533 59.7329 101.637 58.6261C101.748 57.5193 101.843 56.4158 101.921 55.3156C102.005 54.2088 102.074 53.102 102.126 51.9952C102.178 50.8885 102.204 49.7817 102.204 48.6749L106.852 48.4796L106.833 49.6124C106.976 49.4301 107.139 49.2478 107.321 49.0656C107.503 48.8767 107.695 48.7107 107.897 48.5675C108.106 48.4178 108.324 48.2973 108.552 48.2062C108.786 48.115 109.027 48.0695 109.274 48.0695C109.593 48.0695 109.88 48.0955 110.134 48.1476C110.387 48.1932 110.615 48.2745 110.817 48.3917C111.025 48.5089 111.208 48.6717 111.364 48.88C111.52 49.0818 111.657 49.339 111.774 49.6515C111.983 49.4236 112.191 49.212 112.399 49.0167C112.614 48.8214 112.839 48.6554 113.073 48.5187C113.307 48.3754 113.561 48.2648 113.835 48.1866C114.108 48.1085 114.411 48.0695 114.743 48.0695C115.374 48.0695 115.912 48.1932 116.354 48.4406C116.797 48.6814 117.165 49.0037 117.458 49.4073C117.757 49.811 117.988 50.2732 118.151 50.7941C118.32 51.3149 118.447 51.8553 118.532 52.4152C118.617 52.9751 118.669 53.5317 118.688 54.0851C118.714 54.6385 118.727 55.1463 118.727 55.6085ZM130.524 54.339C130.524 54.9054 130.485 55.4718 130.407 56.0382C129.294 56.1098 128.187 56.227 127.087 56.3898C125.986 56.546 124.886 56.7023 123.786 56.8585C123.955 57.3273 124.219 57.7016 124.577 57.9816C124.941 58.2615 125.374 58.4015 125.876 58.4015C126.136 58.4015 126.419 58.3527 126.725 58.255C127.038 58.1573 127.347 58.0369 127.653 57.8937C127.959 57.7439 128.252 57.5844 128.532 57.4152C128.812 57.2459 129.053 57.0929 129.255 56.9562L128.786 61.3898C128.532 61.5851 128.255 61.7511 127.956 61.8878C127.663 62.0245 127.357 62.1352 127.038 62.2198C126.719 62.3045 126.397 62.3663 126.071 62.4054C125.746 62.4445 125.427 62.464 125.114 62.464C124.469 62.464 123.88 62.3761 123.346 62.2003C122.813 62.0245 122.328 61.7804 121.891 61.4679C121.462 61.1489 121.084 60.7745 120.759 60.3448C120.433 59.9152 120.163 59.4464 119.948 58.9386C119.733 58.4308 119.57 57.8937 119.46 57.3273C119.349 56.7609 119.294 56.1879 119.294 55.6085C119.294 55.0031 119.349 54.3976 119.46 53.7921C119.57 53.1866 119.736 52.604 119.958 52.0441C120.186 51.4842 120.469 50.9666 120.807 50.4913C121.152 50.0096 121.553 49.5896 122.009 49.2316C122.464 48.8735 122.979 48.5935 123.552 48.3917C124.131 48.1899 124.769 48.089 125.466 48.089C126.045 48.089 126.572 48.1704 127.048 48.3331C127.529 48.4894 127.956 48.7107 128.327 48.9972C128.705 49.2771 129.03 49.6124 129.303 50.0031C129.583 50.3937 129.811 50.8234 129.987 51.2921C130.169 51.7544 130.303 52.2459 130.387 52.7667C130.479 53.281 130.524 53.8051 130.524 54.339ZM126.618 53.8312C126.618 53.6489 126.598 53.4633 126.559 53.2745C126.52 53.0792 126.455 52.9034 126.364 52.7472C126.279 52.5909 126.165 52.464 126.022 52.3663C125.879 52.2622 125.7 52.2101 125.485 52.2101C125.225 52.2101 124.994 52.2817 124.792 52.4249C124.596 52.5616 124.427 52.7374 124.284 52.9523C124.141 53.1606 124.024 53.3885 123.932 53.6359C123.841 53.8833 123.773 54.1111 123.727 54.3195L126.618 54.046V53.8312ZM142.614 52.8156C142.614 53.3234 142.568 53.7856 142.477 54.2023C142.393 54.6124 142.256 54.99 142.067 55.3351C141.878 55.6801 141.634 55.9991 141.335 56.2921C141.035 56.5851 140.674 56.865 140.251 57.132L142.575 61.2726L138.18 62.132L136.677 57.9718L135.466 58.0109L135.29 62.0734H131.091C131.123 60.589 131.152 59.1111 131.178 57.6398C131.211 56.1684 131.247 54.6906 131.286 53.2062C131.299 52.4575 131.312 51.7153 131.325 50.9796C131.338 50.2439 131.364 49.5017 131.403 48.7531C131.859 48.5838 132.308 48.4438 132.751 48.3331C133.193 48.2225 133.636 48.1378 134.079 48.0792C134.528 48.0141 134.981 47.9718 135.436 47.9523C135.899 47.9262 136.371 47.9132 136.852 47.9132C137.594 47.9132 138.311 48.0174 139.001 48.2257C139.697 48.4275 140.313 48.7335 140.846 49.1437C141.38 49.5538 141.807 50.0649 142.126 50.6769C142.451 51.2889 142.614 52.0017 142.614 52.8156ZM138.239 53.1281C138.239 52.8546 138.2 52.604 138.122 52.3761C138.05 52.1482 137.94 51.9529 137.79 51.7902C137.647 51.6209 137.464 51.4907 137.243 51.3995C137.028 51.3019 136.774 51.2531 136.481 51.2531C136.351 51.2531 136.224 51.2628 136.1 51.2823C135.977 51.2954 135.856 51.3182 135.739 51.3507L135.583 54.9835H135.817C136.097 54.9835 136.38 54.9477 136.667 54.8761C136.96 54.8045 137.22 54.6938 137.448 54.5441C137.682 54.3943 137.871 54.2023 138.014 53.9679C138.164 53.7335 138.239 53.4536 138.239 53.1281ZM155.368 54.7491C155.368 55.3416 155.3 55.9145 155.163 56.4679C155.026 57.0148 154.828 57.5291 154.567 58.0109C154.313 58.4926 154.001 58.9353 153.63 59.339C153.265 59.7361 152.852 60.0779 152.389 60.3644C151.934 60.6508 151.436 60.8754 150.895 61.0382C150.355 61.1945 149.782 61.2726 149.177 61.2726C148.591 61.2726 148.031 61.1977 147.497 61.048C146.969 60.8982 146.475 60.6899 146.012 60.423C145.55 60.1495 145.13 59.824 144.753 59.4464C144.382 59.0623 144.063 58.6391 143.796 58.1769C143.535 57.7081 143.33 57.2068 143.18 56.673C143.037 56.1391 142.966 55.5825 142.966 55.0031C142.966 54.4366 143.034 53.8833 143.171 53.3429C143.307 52.796 143.503 52.2817 143.757 51.7999C144.017 51.3182 144.33 50.8754 144.694 50.4718C145.059 50.0682 145.466 49.7198 145.915 49.4269C146.371 49.1339 146.862 48.906 147.389 48.7433C147.917 48.5805 148.473 48.4991 149.059 48.4991C150.003 48.4991 150.863 48.6456 151.637 48.9386C152.419 49.2316 153.083 49.6515 153.63 50.1984C154.183 50.7387 154.609 51.3963 154.909 52.171C155.215 52.9392 155.368 53.7986 155.368 54.7491ZM151.032 55.0031C151.032 54.7231 150.99 54.4529 150.905 54.1925C150.827 53.9256 150.71 53.6912 150.553 53.4894C150.397 53.281 150.202 53.115 149.968 52.9913C149.74 52.8611 149.476 52.796 149.177 52.796C148.871 52.796 148.597 52.8514 148.356 52.962C148.115 53.0727 147.907 53.2257 147.731 53.421C147.562 53.6098 147.432 53.8344 147.341 54.0948C147.249 54.3488 147.204 54.6189 147.204 54.9054C147.204 55.1788 147.243 55.4523 147.321 55.7257C147.399 55.9991 147.516 56.2465 147.673 56.4679C147.829 56.6892 148.021 56.8683 148.249 57.005C148.483 57.1417 148.753 57.2101 149.059 57.2101C149.365 57.2101 149.639 57.1515 149.88 57.0343C150.127 56.9106 150.335 56.7478 150.505 56.546C150.674 56.3377 150.804 56.1001 150.895 55.8331C150.986 55.5662 151.032 55.2895 151.032 55.0031ZM169.889 57.5421L169.03 57.5616L168.854 61.7804L164.44 62.171L164.675 57.6593L159.46 57.7765L160.905 49.2023H164.596L163.522 55.1788L164.811 55.1398L165.182 47.7374H169.421L169.128 54.9835L169.889 54.9445V57.5421ZM180.651 57.3077C180.651 58.1541 180.498 58.8898 180.192 59.5148C179.893 60.1398 179.483 60.6573 178.962 61.0675C178.441 61.4777 177.829 61.7837 177.126 61.9855C176.423 62.1873 175.671 62.2882 174.87 62.2882C174.486 62.2882 174.108 62.2622 173.737 62.2101C173.366 62.1515 172.998 62.0766 172.634 61.9855C172.275 61.8878 171.917 61.7771 171.559 61.6534C171.208 61.5297 170.853 61.3963 170.495 61.2531L170.866 57.3663C171.1 57.4965 171.351 57.617 171.618 57.7277C171.885 57.8383 172.158 57.9327 172.438 58.0109C172.725 58.089 173.011 58.1508 173.298 58.1964C173.591 58.242 173.874 58.2648 174.147 58.2648C174.31 58.2648 174.509 58.2517 174.743 58.2257C174.977 58.1932 175.202 58.1378 175.417 58.0597C175.632 57.9751 175.814 57.8644 175.964 57.7277C176.12 57.5844 176.198 57.3989 176.198 57.171C176.198 56.9562 176.136 56.7706 176.012 56.6144C175.895 56.4581 175.739 56.3312 175.544 56.2335C175.355 56.1294 175.14 56.048 174.899 55.9894C174.658 55.9308 174.414 55.8852 174.167 55.8527C173.926 55.8201 173.695 55.8006 173.473 55.7941C173.259 55.7876 173.08 55.7843 172.936 55.7843C172.643 55.7843 172.344 55.7973 172.038 55.8234C171.738 55.8494 171.445 55.9015 171.159 55.9796L171.55 48.089L179.46 47.8741L179.675 51.9562L174.772 51.6827L174.675 53.421C174.968 53.3494 175.26 53.2973 175.553 53.2648C175.846 53.2257 176.139 53.2062 176.432 53.2062C177.025 53.2062 177.575 53.3038 178.083 53.4991C178.597 53.6879 179.043 53.9614 179.421 54.3195C179.805 54.6775 180.104 55.1105 180.319 55.6183C180.54 56.1196 180.651 56.6827 180.651 57.3077Z" fill="#FCFFFC"/>
</svg>
