<svg width="27" height="27" viewBox="0 0 27 27" fill="none" xmlns="http://www.w3.org/2000/svg">
<g clip-path="url(#clip0)">
<path d="M26.6221 23.1993L20.1577 16.5211C19.6942 16.0419 19.1148 15.8501 18.8638 16.0951C18.6119 16.3383 18.0322 16.147 17.5686 15.6678L17.4762 15.572C20.3694 11.7667 20.0886 6.31842 16.6143 2.84406C12.8223 -0.947858 6.6742 -0.947858 2.88276 2.84406C-0.909161 6.63598 -0.909161 12.7832 2.88276 16.5752C6.41629 20.1092 11.9933 20.3459 15.8064 17.2936L15.847 17.3359C16.3096 17.8151 16.482 18.4005 16.2293 18.6441C15.9779 18.8878 16.149 19.4736 16.613 19.9518L23.0739 26.6327C23.5375 27.1105 24.3013 27.1248 24.7809 26.6608L26.5941 24.9064C27.0719 24.4435 27.0848 23.6802 26.6221 23.1993ZM14.4805 14.4413C11.8711 17.0511 7.62474 17.0511 5.0157 14.4421C2.40626 11.8327 2.40665 7.58589 5.0157 4.97692C7.62474 2.36748 11.8711 2.36788 14.4796 4.97732C17.0895 7.58636 17.0895 11.8323 14.4805 14.4413Z" fill="#253629"/>
</g>
<defs>
<clipPath id="clip0">
<rect width="27" height="27" fill="white"/>
</clipPath>
</defs>
</svg>
